# xmcd
#
# Track frame offsets:
#	150
#	13256
#	26612
#	38158
#	53423
#	65822
#	79278
#	90888
#	104913
#	115041
#	128434
#	142531
#	157372
#	174669
#	185239
#	195750
#
# Disc length: 2754 seconds
#
# Revision: 0
# Processed by: cddbd v1.4PL0 Copyright (c) Steve Scherf et al.
# Submitted via: dBpowerAMP V4.0
#
DISCID=d10ac010
DTITLE=Kenny Rogers - Kenny Rogers and The First Edition
DYEAR=2003
DGENRE=Country
TTITLE0=Ruby Don't Take Your Love To Town
TTITLE1=But You Know That I Love You
TTITLE2=Me and Bobby McGee
TTITLE3=For the Good Times
TTITLE4=Reuben James
TTITLE5=Shine on Ruby Mountain
TTITLE6=Poem For My Lady
TTITLE7=Molly
TTITLE8=Where Does Rosie Go
TTITLE9=A Stranger In My Place
TTITLE10=Sunshine
TTITLE11=All God's Lonely Children
TTITLE12=Something's Burning
TTITLE13=Trying Just As Hard
TTITLE14=We All Got To Help Each Other
TTITLE15=Always Leavin' , Always Gone
EXTD=Kenny Rogers - The First Edition
EXTT0=
EXTT1=
EXTT2=
EXTT3=
EXTT4=
EXTT5=
EXTT6=
EXTT7=
EXTT8=
EXTT9=
EXTT10=
EXTT11=
EXTT12=
EXTT13=
EXTT14=
EXTT15=
PLAYORDER=
